<svg xmlns="http://www.w3.org/2000/svg" viewBox="0 0 1200 900"><defs><radialGradient id="g1" cx="20%" cy="10%" r="80%"><stop offset="0" stop-color="#7C5CFF" stop-opacity=".55"/><stop offset="1" stop-color="#0A0A0C" stop-opacity="0"/></radialGradient><radialGradient id="g2" cx="95%" cy="100%" r="70%"><stop offset="0" stop-color="#C6FF3D" stop-opacity=".25"/><stop offset="1" stop-color="#0A0A0C" stop-opacity="0"/></radialGradient></defs><rect width="1200" height="900" fill="#111116"/><rect width="1200" height="900" fill="url(#g1)"/><rect width="1200" height="900" fill="url(#g2)"/><g fill="#7C5CFF"><rect x="250" y="400" width="24" height="100" rx="12"/><rect x="300" y="340" width="24" height="220" rx="12"/><rect x="350" y="280" width="24" height="340" rx="12"/><rect x="400" y="370" width="24" height="160" rx="12"/><rect x="450" y="310" width="24" height="280" rx="12"/><rect x="500" y="410" width="24" height="80" rx="12"/></g><text x="600" y="520" font-family="Arial Black, Helvetica Neue, Arial, sans-serif" font-weight="900" font-size="200" fill="#fff">AI</text><path d="M940 250 l20 60 60 20 -60 20 -20 60 -20 -60 -60 -20 60 -20z" fill="#C6FF3D"/><text x="600" y="640" font-family="Arial, sans-serif" font-size="40" fill="#A1A1AA">coming soon</text></svg>
